<svg width="70" height="70" viewBox="0 0 70 70" fill="none" xmlns="http://www.w3.org/2000/svg">
<path fill-rule="evenodd" clip-rule="evenodd" d="M68.4946 35C68.4946 53.4986 53.4986 68.4946 35 68.4946C16.5014 68.4946 1.50538 53.4986 1.50538 35C1.50538 16.5014 16.5014 1.50538 35 1.50538C53.4986 1.50538 68.4946 16.5014 68.4946 35ZM70 35C70 54.33 54.33 70 35 70C15.67 70 0 54.33 0 35C0 15.67 15.67 0 35 0C54.33 0 70 15.67 70 35ZM40.8202 27.6288V23.9171C40.8202 20.6694 38.2684 18.1176 35.0207 18.1176C31.773 18.1176 29.2212 20.6694 29.2212 23.9171V27.6288C27.8293 28.0928 26.9014 29.3687 26.9014 30.8765V35.5161C26.9014 37.488 28.4093 38.9958 30.3811 38.9958H39.6603C41.6321 38.9958 43.14 37.488 43.14 35.5161V30.8765C43.14 29.3687 42.2121 28.0928 40.8202 27.6288ZM36.1806 34.3562C36.1806 35.0522 35.7166 35.5161 35.0207 35.5161C34.3248 35.5161 33.8608 35.0522 33.8608 34.3562V32.0364C33.8608 31.3405 34.3248 30.8765 35.0207 30.8765C35.7166 30.8765 36.1806 31.3405 36.1806 32.0364V34.3562ZM38.5004 27.3968H31.541V23.9171C31.541 21.9453 33.0489 20.4374 35.0207 20.4374C36.9925 20.4374 38.5004 21.9453 38.5004 23.9171V27.3968ZM37.9198 44.9114L36.18 45.4913V43.6355C36.18 42.9396 35.716 42.4756 35.0201 42.4756C34.3241 42.4756 33.8602 42.9396 33.8602 43.6355V45.4913L32.1203 44.9114C31.5404 44.6794 30.8444 45.0274 30.6125 45.6073C30.3805 46.1873 30.7285 46.8832 31.3084 47.1152L33.0483 47.6951L31.8884 49.203C31.5404 49.667 31.6564 50.4789 32.1203 50.8269C32.3523 50.9429 32.5843 51.0589 32.8163 51.0589C33.1642 51.0589 33.5122 50.9429 33.7442 50.5949L34.9041 49.087L36.064 50.5949C36.296 50.9429 36.6439 51.0589 36.9919 51.0589C37.2239 51.0589 37.4559 50.9429 37.6879 50.8269C38.1518 50.4789 38.2678 49.667 37.9198 49.203L36.7599 47.6951L38.4998 47.1152C39.0797 46.8832 39.4277 46.3033 39.1957 45.6073C39.1957 45.0274 38.6158 44.7954 37.9198 44.9114ZM49.5189 45.0274C50.2148 44.7954 50.7948 45.1434 51.0268 45.7233C51.2587 46.3033 50.9108 46.9992 50.0988 47.1152L48.359 47.6951L49.5189 49.203C49.8669 49.667 49.7509 50.4789 49.2869 50.8269C49.0549 50.9429 48.8229 51.0589 48.591 51.0589C48.243 51.0589 47.895 50.9429 47.663 50.5949L46.5031 49.087L45.3432 50.5949C45.1113 50.9429 44.7633 51.0589 44.4153 51.0589C44.1833 51.0589 43.9514 50.9429 43.7194 50.8269C43.2554 50.4789 43.1394 49.667 43.4874 49.203L44.6473 47.6951L42.9075 47.1152C42.3275 46.8832 41.9795 46.1873 42.2115 45.6073C42.4435 45.0274 43.1394 44.6794 43.7194 44.9114L45.4592 45.4913V43.6355C45.4592 42.9396 45.9232 42.4756 46.6191 42.4756C47.3151 42.4756 47.779 42.9396 47.779 43.6355V45.4913L49.5189 45.0274ZM26.3213 44.9114L24.5814 45.4913V43.6355C24.5814 42.9396 24.1175 42.4756 23.4215 42.4756C22.7256 42.4756 22.2616 42.9396 22.2616 43.6355V45.4913L20.5218 44.9114C19.9418 44.6794 19.2459 45.0274 19.0139 45.6073C18.7819 46.3033 19.1299 46.9992 19.7098 47.1152L21.4497 47.6951L20.2898 49.203C19.9418 49.667 20.0578 50.4789 20.5218 50.8269C20.7538 50.9429 20.9857 51.0589 21.2177 51.0589C21.5657 51.0589 21.9137 50.9429 22.1456 50.5949L23.3055 49.087L24.5814 50.5949C24.8134 50.9429 25.1614 51.0589 25.5093 51.0589C25.7413 51.0589 25.9733 50.9429 26.2053 50.8269C26.6693 50.4789 26.7852 49.667 26.4373 49.203L25.2774 47.6951L27.1332 47.1152C27.7132 46.8832 28.0611 46.3033 27.8292 45.6073C27.5972 45.0274 27.0172 44.7954 26.3213 44.9114Z" fill="url(#paint0_linear_661_3370)"/>
<defs>
<linearGradient id="paint0_linear_661_3370" x1="35" y1="0" x2="35" y2="70" gradientUnits="userSpaceOnUse">
<stop stop-color="#EB1935"/>
<stop offset="1" stop-color="#FE5439"/>
</linearGradient>
</defs>
</svg>
