<svg width="17" height="17" viewBox="0 0 17 17" fill="none" xmlns="http://www.w3.org/2000/svg">
<path d="M8.3055 0C6.66283 0 5.05704 0.488741 3.69121 1.40442C2.32538 2.3201 1.26084 3.62159 0.632222 5.1443C0.00359864 6.66702 -0.160878 8.34258 0.159591 9.95908C0.480061 11.5756 1.27108 13.0605 2.43263 14.2259C3.59417 15.3913 5.07407 16.185 6.68518 16.5065C8.29628 16.8281 9.96624 16.6631 11.4839 16.0323C13.0015 15.4016 14.2986 14.3335 15.2113 12.9631C16.1239 11.5927 16.611 9.98151 16.611 8.33333C16.611 7.23898 16.3962 6.15535 15.9788 5.1443C15.5614 4.13326 14.9496 3.2146 14.1784 2.44078C13.4071 1.66696 12.4915 1.05313 11.4839 0.634337C10.4762 0.215548 9.39619 0 8.3055 0ZM10.9716 9.825C11.0494 9.90247 11.1112 9.99464 11.1534 10.0962C11.1955 10.1977 11.2172 10.3067 11.2172 10.4167C11.2172 10.5267 11.1955 10.6356 11.1534 10.7371C11.1112 10.8387 11.0494 10.9309 10.9716 11.0083C10.8944 11.0864 10.8025 11.1484 10.7013 11.1907C10.6001 11.233 10.4915 11.2548 10.3819 11.2548C10.2722 11.2548 10.1637 11.233 10.0625 11.1907C9.96125 11.1484 9.86939 11.0864 9.79218 11.0083L8.3055 9.50833L6.81881 11.0083C6.7416 11.0864 6.64974 11.1484 6.54853 11.1907C6.44732 11.233 6.33877 11.2548 6.22912 11.2548C6.11948 11.2548 6.01092 11.233 5.90971 11.1907C5.8085 11.1484 5.71664 11.0864 5.63943 11.0083C5.56159 10.9309 5.4998 10.8387 5.45763 10.7371C5.41547 10.6356 5.39376 10.5267 5.39376 10.4167C5.39376 10.3067 5.41547 10.1977 5.45763 10.0962C5.4998 9.99464 5.56159 9.90247 5.63943 9.825L7.13442 8.33333L5.63943 6.84167C5.48304 6.68475 5.39518 6.47192 5.39518 6.25C5.39518 6.02808 5.48304 5.81525 5.63943 5.65833C5.79583 5.50141 6.00795 5.41326 6.22912 5.41326C6.4503 5.41326 6.66242 5.50141 6.81881 5.65833L8.3055 7.15833L9.79218 5.65833C9.94858 5.50141 10.1607 5.41326 10.3819 5.41326C10.603 5.41326 10.8152 5.50141 10.9716 5.65833C11.128 5.81525 11.2158 6.02808 11.2158 6.25C11.2158 6.47192 11.128 6.68475 10.9716 6.84167L9.47657 8.33333L10.9716 9.825Z" fill="#EB1935"/>
</svg>
