<svg width="24" height="25" viewBox="0 0 24 25" fill="none" xmlns="http://www.w3.org/2000/svg">
<path d="M12 0.0234375C5.4 0.0234375 0 5.43186 0 12.0422C0 18.6525 5.4 24.0609 12 24.0609C18.6 24.0609 24 18.6525 24 12.0422C24 5.43186 18.6 0.0234375 12 0.0234375ZM12 4.02968C14.2 4.02968 16 6.23311 16 9.03748C16 11.8418 14.2 14.0453 12 14.0453C9.8 14.0453 8 11.8418 8 9.03748C8 6.23311 9.8 4.02968 12 4.02968ZM18.6 19.5539C16.9 21.0562 14.5 22.0578 12 22.0578C9.5 22.0578 7.1 21.0562 5.4 19.5539C5 19.1532 4.9 18.5523 5.3 18.1517C6.4 16.8496 7.9 15.9482 9.5 15.4475C10.3 15.8481 11.1 16.0484 12 16.0484C12.9 16.0484 13.7 15.8481 14.5 15.4475C16.2 15.9482 17.6 16.8496 18.7 18.1517C19.1 18.5523 19.1 19.1532 18.6 19.5539Z" fill="url(#paint0_linear_661_3666)"/>
<defs>
<linearGradient id="paint0_linear_661_3666" x1="12" y1="0.0234375" x2="12" y2="24.0609" gradientUnits="userSpaceOnUse">
<stop stop-color="#EB1935"/>
<stop offset="1" stop-color="#FE5439"/>
</linearGradient>
</defs>
</svg>
