<svg width="14" height="19" viewBox="0 0 14 19" fill="none" xmlns="http://www.w3.org/2000/svg">
<path d="M11.9999 6.66683H11.1666V5.00016C11.1666 2.70016 9.29992 0.833496 6.99992 0.833496C4.69992 0.833496 2.83325 2.70016 2.83325 5.00016V6.66683H1.99992C1.07909 6.66683 0.333252 7.41266 0.333252 8.3335V16.6668C0.333252 17.5877 1.07909 18.3335 1.99992 18.3335H11.9999C12.9208 18.3335 13.6666 17.5877 13.6666 16.6668V8.3335C13.6666 7.41266 12.9208 6.66683 11.9999 6.66683ZM6.99992 14.1668C6.07908 14.1668 5.33325 13.421 5.33325 12.5002C5.33325 11.5793 6.07908 10.8335 6.99992 10.8335C7.92075 10.8335 8.66658 11.5793 8.66658 12.5002C8.66658 13.421 7.92075 14.1668 6.99992 14.1668ZM9.58325 6.66683H4.41658V5.00016C4.41658 3.57516 5.57492 2.41683 6.99992 2.41683C8.42492 2.41683 9.58325 3.57516 9.58325 5.00016V6.66683Z" fill="#EB1935"/>
</svg>
