<svg width="14" height="15" viewBox="0 0 14 15" fill="none" xmlns="http://www.w3.org/2000/svg">
<path d="M13 13.5L9 9.5L13 13.5ZM10.3333 6.16667C10.3333 6.7795 10.2126 7.38634 9.97811 7.95252C9.74358 8.51871 9.39984 9.03316 8.9665 9.4665C8.53316 9.89984 8.01871 10.2436 7.45252 10.4781C6.88634 10.7126 6.2795 10.8333 5.66667 10.8333C5.05383 10.8333 4.447 10.7126 3.88081 10.4781C3.31462 10.2436 2.80018 9.89984 2.36683 9.4665C1.93349 9.03316 1.58975 8.51871 1.35523 7.95252C1.12071 7.38634 1 6.7795 1 6.16667C1 4.92899 1.49167 3.742 2.36683 2.86683C3.242 1.99167 4.42899 1.5 5.66667 1.5C6.90434 1.5 8.09133 1.99167 8.9665 2.86683C9.84167 3.742 10.3333 4.92899 10.3333 6.16667Z" stroke="#747478" stroke-width="2" stroke-linecap="round" stroke-linejoin="round"/>
</svg>
