<svg width="80" height="62" viewBox="0 0 80 62" fill="none" xmlns="http://www.w3.org/2000/svg">
<path d="M50.787 13.8485H29.2305C28.7393 13.849 28.2683 14.0031 27.921 14.277C27.5736 14.5509 27.3782 14.9223 27.3776 15.3097V53.0927L27.1306 53.1521L21.8424 54.4293C21.5918 54.4895 21.3211 54.4689 21.0897 54.3719C20.8584 54.2749 20.6853 54.1095 20.6084 53.912L4.87857 13.3916C4.80202 13.194 4.82811 12.9804 4.95111 12.7979C5.0741 12.6155 5.28394 12.479 5.5345 12.4184L13.6835 10.4506L37.3079 4.74785L45.4569 2.78004C45.5809 2.74994 45.7112 2.73942 45.8404 2.74909C45.9696 2.75875 46.0951 2.78841 46.2097 2.83637C46.3243 2.88432 46.4258 2.94963 46.5084 3.02856C46.591 3.10749 46.653 3.19849 46.6909 3.29635L50.7117 13.6537L50.787 13.8485Z" fill="#F2F2F2"/>
<path d="M55.4919 13.6544L50.646 1.1715C50.5654 0.963511 50.4336 0.770089 50.2581 0.602287C50.0827 0.434484 49.867 0.295591 49.6235 0.193544C49.3799 0.0914957 49.1133 0.0282924 48.8388 0.00754764C48.5642 -0.0131971 48.2872 0.00892334 48.0235 0.0726426L36.5665 2.8383L12.9434 8.54203L1.48633 11.3087C0.954093 11.4375 0.508446 11.7277 0.247206 12.1154C-0.0140348 12.5032 -0.0695259 12.9568 0.092915 13.3768L16.6553 56.0384C16.7873 56.3774 17.0535 56.6741 17.415 56.8851C17.7765 57.096 18.2142 57.21 18.6639 57.2103C18.872 57.2104 19.0789 57.1858 19.2778 57.1373L27.1316 55.2415L27.3786 55.1811V54.9775L27.1316 55.037L19.2049 56.9512C18.7351 57.0641 18.2277 57.0255 17.794 56.8438C17.3602 56.6621 17.0356 56.3521 16.8913 55.9819L0.330136 13.3193C0.258625 13.1359 0.233702 12.9431 0.256792 12.7521C0.279882 12.561 0.350531 12.3754 0.464696 12.206C0.578861 12.0365 0.734301 11.8864 0.92211 11.7644C1.10992 11.6423 1.32641 11.5507 1.55918 11.4947L13.0162 8.7281L36.6394 3.02534L48.0964 0.25871C48.273 0.216217 48.4566 0.19455 48.6412 0.194415C49.0373 0.195116 49.4228 0.295841 49.7411 0.481834C50.0594 0.667828 50.2939 0.929318 50.4101 1.228L55.2338 13.6544L55.3104 13.8493H55.5673L55.4919 13.6544Z" fill="#979A9F"/>
<path d="M15.1542 12.4502C14.9161 12.4501 14.6844 12.3898 14.4929 12.2781C14.3015 12.1665 14.1604 12.0094 14.0905 11.83L12.4994 7.73149C12.4567 7.6214 12.4418 7.50574 12.4558 7.39113C12.4697 7.27651 12.5121 7.16518 12.5806 7.0635C12.6491 6.96182 12.7423 6.87177 12.855 6.79851C12.9676 6.72524 13.0974 6.67019 13.237 6.6365L34.9701 1.38929C35.252 1.32144 35.5566 1.34458 35.8169 1.45363C36.0772 1.56267 36.272 1.74872 36.3586 1.97093L37.9497 6.06946C38.0356 6.2918 38.0063 6.53196 37.868 6.73725C37.7297 6.94254 37.4939 7.09619 37.2121 7.16449L15.479 12.4117C15.3738 12.4372 15.2643 12.4502 15.1542 12.4502Z" fill="#A0A0A0"/>
<path d="M23.4891 4.37762C24.8535 4.37762 25.9596 3.50532 25.9596 2.42929C25.9596 1.35325 24.8535 0.480957 23.4891 0.480957C22.1246 0.480957 21.0186 1.35325 21.0186 2.42929C21.0186 3.50532 22.1246 4.37762 23.4891 4.37762Z" fill="#A0A0A0"/>
<path d="M23.4887 3.66329C24.3527 3.66329 25.0531 3.11092 25.0531 2.42954C25.0531 1.74817 24.3527 1.1958 23.4887 1.1958C22.6247 1.1958 21.9243 1.74817 21.9243 2.42954C21.9243 3.11092 22.6247 3.66329 23.4887 3.66329Z" fill="white"/>
<path d="M74.4415 56.7118H32.6896C32.4112 56.7116 32.1444 56.6242 31.9475 56.469C31.7507 56.3138 31.64 56.1033 31.6396 55.8838V16.4301C31.64 16.2106 31.7507 16.0001 31.9475 15.8448C32.1444 15.6896 32.4112 15.6023 32.6896 15.6021H74.4415C74.7198 15.6023 74.9867 15.6896 75.1835 15.8449C75.3804 16.0001 75.4911 16.2106 75.4914 16.4301V55.8838C75.4911 56.1033 75.3804 56.3138 75.1835 56.469C74.9867 56.6242 74.7198 56.7115 74.4415 56.7118Z" fill="#E6E6E6"/>
<path d="M55.233 13.6538H29.2308C28.6741 13.6544 28.1404 13.8291 27.7468 14.1396C27.3531 14.45 27.1316 14.8709 27.1309 15.3099V55.0363L27.3779 54.9769V15.3099C27.3785 14.9225 27.5739 14.5511 27.9213 14.2772C28.2686 14.0032 28.7396 13.8491 29.2308 13.8486H55.3096L55.233 13.6538ZM77.9001 13.6538H29.2308C28.6741 13.6544 28.1404 13.8291 27.7468 14.1396C27.3531 14.45 27.1316 14.8709 27.1309 15.3099V59.9266C27.1316 60.3657 27.3531 60.7865 27.7468 61.097C28.1404 61.4074 28.6741 61.5821 29.2308 61.5827H77.9001C78.4568 61.5821 78.9905 61.4074 79.3841 61.097C79.7778 60.7865 79.9992 60.3657 80 59.9266V15.3099C79.9992 14.8709 79.7778 14.45 79.3841 14.1396C78.9905 13.8291 78.4568 13.6544 77.9001 13.6538ZM79.753 59.9266C79.7524 60.314 79.557 60.6854 79.2096 60.9594C78.8623 61.2333 78.3913 61.3874 77.9001 61.3879H29.2308C28.7396 61.3874 28.2686 61.2333 27.9213 60.9594C27.5739 60.6854 27.3785 60.314 27.3779 59.9266V15.3099C27.3785 14.9225 27.5739 14.5511 27.9213 14.2772C28.2686 14.0032 28.7396 13.8491 29.2308 13.8486H77.9001C78.3913 13.8491 78.8623 14.0032 79.2096 14.2772C79.557 14.5511 79.7524 14.9225 79.753 15.3099V59.9266Z" fill="#979A9F"/>
<path d="M64.9299 17.9397H42.2011C41.9063 17.9395 41.6238 17.847 41.4153 17.6826C41.2069 17.5183 41.0897 17.2954 41.0894 17.063V12.7767C41.0897 12.5442 41.2069 12.3214 41.4153 12.157C41.6238 11.9926 41.9063 11.9002 42.2011 11.8999H64.9299C65.2247 11.9002 65.5072 11.9926 65.7157 12.157C65.9241 12.3214 66.0413 12.5442 66.0416 12.7767V17.063C66.0413 17.2954 65.9241 17.5183 65.7157 17.6826C65.5072 17.847 65.2247 17.9395 64.9299 17.9397Z" fill="#A0A0A0"/>
<path d="M53.5652 12.1926C54.9297 12.1926 56.0358 11.3203 56.0358 10.2442C56.0358 9.1682 54.9297 8.2959 53.5652 8.2959C52.2008 8.2959 51.0947 9.1682 51.0947 10.2442C51.0947 11.3203 52.2008 12.1926 53.5652 12.1926Z" fill="#A0A0A0"/>
<path d="M53.5653 11.4306C54.3964 11.4306 55.0701 10.8992 55.0701 10.2438C55.0701 9.58844 54.3964 9.05713 53.5653 9.05713C52.7343 9.05713 52.0605 9.58844 52.0605 10.2438C52.0605 10.8992 52.7343 11.4306 53.5653 11.4306Z" fill="white"/>
</svg>
