<svg width="70" height="70" viewBox="0 0 70 70" fill="none" xmlns="http://www.w3.org/2000/svg">
<path fill-rule="evenodd" clip-rule="evenodd" d="M68.4946 35C68.4946 53.4986 53.4986 68.4946 35 68.4946C16.5014 68.4946 1.50538 53.4986 1.50538 35C1.50538 16.5014 16.5014 1.50538 35 1.50538C53.4986 1.50538 68.4946 16.5014 68.4946 35ZM70 35C70 54.33 54.33 70 35 70C15.67 70 0 54.33 0 35C0 15.67 15.67 0 35 0C54.33 0 70 15.67 70 35ZM23 35.0422C23 28.4319 28.4 23.0234 35 23.0234C41.6 23.0234 47 28.4319 47 35.0422C47 41.6525 41.6 47.0609 35 47.0609C28.4 47.0609 23 41.6525 23 35.0422ZM39 32.0375C39 29.2331 37.2 27.0297 35 27.0297C32.8 27.0297 31 29.2331 31 32.0375C31 34.8418 32.8 37.0453 35 37.0453C37.2 37.0453 39 34.8418 39 32.0375ZM35 45.0578C37.5 45.0578 39.9 44.0562 41.6 42.5539C42.1 42.1532 42.1 41.5523 41.7 41.1517C40.6 39.8497 39.2 38.9482 37.5 38.4475C36.7 38.8481 35.9 39.0484 35 39.0484C34.1 39.0484 33.3 38.8481 32.5 38.4475C30.9 38.9482 29.4 39.8497 28.3 41.1517C27.9 41.5523 28 42.1532 28.4 42.5539C30.1 44.0562 32.5 45.0578 35 45.0578Z" fill="url(#paint0_linear_661_3241)"/>
<defs>
<linearGradient id="paint0_linear_661_3241" x1="35" y1="-104.977" x2="35" y2="70" gradientUnits="userSpaceOnUse">
<stop stop-color="#EB1935"/>
<stop offset="1" stop-color="#FE5439"/>
</linearGradient>
</defs>
</svg>
